# xmcd CD database file
#
# Track frame offsets:
#	150
#	14917
#	47035
#	76975
#
# Disc length: 1445 seconds
#
# Revision: 0
# Processed by: cddbd v1.5.1PL0 Copyright (c) Steve Scherf et al.
# Submitted via: CDex 1.51
#
DISCID=2c05a304
DTITLE=JAZZTRONIK - MADRUGADA/TIGER EYES
DYEAR=2004
DGENRE=Club
TTITLE0=OPENING
TTITLE1=TIGER EYES
TTITLE2=MADRUGADA
TTITLE3=VERDADES
EXTD=YEAR: 2004
EXTT0=
EXTT1=
EXTT2=
EXTT3=
PLAYORDER=
